# xmcd
#
# Track frame offsets:
#	150
#	15687
#	27689
#	50152
#	67161
#	77981
#	86448
#	98790
#	116976
#	129384
#	147196
#	159370
#	170359
#	192569
#	208329
#	220463
#	240162
#	251207
#	265220
#	281931
#	295407
#
# Disc length: 4390 seconds
#
# Revision: 0
# Processed by: cddbd v1.5.2PL0 Copyright (c) Steve Scherf et al.
# Submitted via: EasyCDDAExtractor 15.2.1.1
#
DISCID=52112415
DTITLE=Fryske Cash
DYEAR=1900
DGENRE=
TTITLE0=Highway 54 - Eeltsjemar
TTITLE1=Cees Greuter - Dinie is Doad
TTITLE2=Agnes Sambrink - Spiritual
TTITLE3=Eduard Rekker - In Man neamd Tyt
TTITLE4=Rockin Ronnie - Ballade fan in Breezerslet
TTITLE5=Eddy Dykstra - Fiif Klomp Heech En Ruzich
TTITLE6=Hendrik Waringa - De Smelle Wei
TTITLE7=Monstertux - Sear
TTITLE8=De Hunekop - Druksrotsoai
TTITLE9=Eric Ennema - De Grutste Cowboy Dy´t Der Is
TTITLE10=Foppe Land  and de Hamstra's - Ferlossing
TTITLE11=Rients Gratama - Dwerse Strepen
TTITLE12=Ska3 - Spookbrommers Yn De Loft
TTITLE13=Baldrs Draumar - De Kop Foardel
TTITLE14=Elske Minnema - Billy Benton and the Birddogs - Toe Jou Dyn Mes Oan Mem
TTITLE15=It Langstme en de Dea - Sneintemoarn
TTITLE16=Billy Benton and the Birddogs - Guule
TTITLE17=Steff da Campo and Rients Gratama - Dwerse Strepen (remix)
TTITLE18=Anneke Douma and Pieter van der Bij - Berltsum
TTITLE19=Highway 54 - Grut Lankumer Blues
TTITLE20=Reitse Spanninga - Myn Opa Syn Klok
EXTD=
EXTT0=
EXTT1=
EXTT2=
EXTT3=
EXTT4=
EXTT5=
EXTT6=
EXTT7=
EXTT8=
EXTT9=
EXTT10=
EXTT11=
EXTT12=
EXTT13=
EXTT14=
EXTT15=
EXTT16=
EXTT17=
EXTT18=
EXTT19=
EXTT20=
PLAYORDER=
